<svg id="desktop-butterchalk" xmlns="http://www.w3.org/2000/svg" viewBox="-0.000002 -0.000002 1764.260864 811.911560" ><path class="selected"  fill="#000000" opacity="1.000000" stroke="none" 
 	d="
M1557.369678 555.592448 C1567.503924 550.291784 1582.723855 553.239590 1586.269763 564.112792 C1587.764183 568.695291 1586.958124 573.668646 1586.191512 578.427312 C1575.879537 642.437651 1575.311950 708.008714 1584.514302 772.187971 C1585.493227 779.015210 1586.274754 786.898848 1581.551235 791.924568 C1575.917110 797.919152 1565.213456 795.791722 1559.739408 789.650614 C1554.265360 783.509507 1552.745856 774.874642 1551.874490 766.694231 C1549.852263 747.709500 1550.112226 728.564388 1550.374565 709.474061 C1551.038764 661.140481 1551.702963 612.806901 1552.367162 564.473321 C1552.393331 562.569037 1552.445015 560.568205 1553.403685 558.922624 C1554.284514 557.410663 1555.819140 556.403448 1557.369677 555.592448 z"/><path class="selected"  fill="#000000" opacity="1.000000" stroke="none" 
 	d="
M423.017737 760.214427 C435.276647 760.069933 441.871128 745.882702 444.429549 733.892864 C449.269385 711.211279 450.295725 687.720808 447.452549 664.703543 C446.642007 658.141689 445.669369 650.896635 449.378806 645.423521 C454.078280 638.489655 464.948293 637.917750 471.764843 642.785827 C478.581393 647.653904 481.718500 656.378562 482.108543 664.745843 C482.498585 673.113124 480.555923 681.385536 479.170148 689.646477 C474.388455 718.151288 476.194126 747.299990 478.013785 776.145746 C478.478387 783.510712 470.126150 789.185146 462.831806 788.066616 C455.537461 786.948086 449.833460 780.999926 446.389202 774.473391 C431.925922 784.023168 412.169847 784.881701 396.932654 776.622605 C381.695461 768.363509 371.631336 751.341377 371.738536 734.010098 C371.888604 709.748567 372.038671 685.487035 372.188739 661.225504 C372.238890 653.117496 372.609551 644.167323 378.177834 638.273551 C382.809428 633.371221 390.667013 631.866027 396.782421 634.709669 C402.897829 637.553310 406.810593 644.531672 406.046764 651.232498 C403.217361 676.053944 402.019582 701.061255 402.463723 726.039493 C402.595614 733.457094 402.922730 741.097462 406.005097 747.845589 C409.087463 754.593716 415.599476 760.301865 423.017734 760.214428 z"/><path class="selected"  fill="#000000" opacity="1.000000" stroke="none" 
 	d="
M1138.317956 743.223360 C1140.561554 739.668082 1142.695372 735.727005 1146.407667 733.754038 C1154.309700 729.554358 1164.320497 737.834883 1164.850310 746.767897 C1165.380122 755.700911 1159.596533 763.758938 1153.239302 770.056958 C1142.046744 781.145269 1127.897848 789.562062 1112.408695 792.444787 C1096.919541 795.327512 1080.102546 792.321620 1067.479667 782.893635 C1050.312800 770.071763 1042.995769 747.157103 1044.172218 725.762765 C1045.348668 704.368427 1053.829465 684.093144 1063.169288 664.809227 C1069.400162 651.944353 1077.633639 638.002130 1091.507463 634.560357 C1100.740161 632.269939 1110.429932 635.287074 1119.166046 639.051252 C1129.935307 643.691465 1140.665493 649.971645 1146.633712 660.065649 C1153.887933 672.334656 1152.713001 687.761858 1149.715247 701.696195 C1147.858810 710.325397 1144.710955 719.716728 1136.950725 723.922476 C1129.190495 728.128225 1116.710782 722.023359 1118.783260 713.443480 C1121.767607 701.088546 1122.910761 688.290535 1122.163340 675.602272 C1121.860970 670.469228 1120.995110 664.842988 1117.103217 661.482522 C1112.660561 657.646498 1105.598669 658.302210 1100.716606 661.560696 C1095.834543 664.819181 1092.710385 670.094120 1090.114352 675.358422 C1080.593251 694.665558 1075.985861 716.371525 1076.842952 737.881574 C1077.345585 750.495931 1081.376788 765.171073 1093.217910 769.548571 C1102.451643 772.962155 1112.780434 768.501414 1120.616122 762.541852 C1127.605162 757.226223 1133.631816 750.649171 1138.317956 743.223360 z"/><path class="selected"  fill="#000000" opacity="1.000000" stroke="none" 
 	d="
M757.404394 715.440713 C759.933266 696.207809 765.854809 677.425826 774.814162 660.220311 C780.198295 649.880636 787.686408 639.341785 798.962204 636.383034 C808.288640 633.935792 818.119023 637.272136 826.844039 641.376463 C838.242607 646.738454 849.211565 653.698098 856.930891 663.652509 C864.650217 673.606920 868.731132 686.952448 865.399679 699.100687 C862.700386 708.943753 855.478704 717.056308 847.067438 722.837548 C830.340287 734.334471 808.133843 737.436611 788.896401 730.963781 C783.943983 744.655821 794.321475 761.609051 808.767742 763.426676 C823.983695 765.341144 836.965122 753.184063 851.409746 748.032048 C856.338589 746.274061 862.343090 745.504451 866.378225 748.836370 C872.627172 753.996292 869.252638 764.470256 863.473661 770.151591 C854.717752 778.759558 842.345039 782.490349 830.320586 784.975419 C812.622761 788.632993 792.819375 789.856974 777.833153 779.757271 C758.164542 766.501953 754.312365 738.956603 757.404394 715.440713 M832.552347 698.035234 C834.303076 694.167710 834.497285 689.763729 834.075436 685.539414 C833.196339 676.736319 828.857889 667.357217 820.537143 664.351813 C813.751158 661.900754 805.819769 664.497855 800.709722 669.591449 C795.599676 674.685043 793.011179 681.865743 792.121800 689.025791 C791.407065 694.779846 791.924593 701.221595 795.947955 705.396825 C799.489958 709.072523 804.968220 710.146868 810.072563 710.099903 C819.057942 710.017229 828.846712 706.221329 832.552347 698.035234 z"/><path class="selected"  fill="#000000" opacity="1.000000" stroke="none" 
 	d="
M1482.151139 803.237295 C1476.819451 806.321849 1469.648760 805.858049 1464.758852 802.112363 C1459.868944 798.366678 1457.553691 791.564212 1459.143279 785.613198 C1439.291773 795.061512 1415.439256 795.703182 1395.108481 787.335834 C1382.618416 782.195415 1370.457073 771.928516 1369.980253 758.430432 C1369.536030 745.855118 1379.381456 735.225403 1389.984618 728.449801 C1408.639472 716.529031 1431.788620 711.838846 1453.612310 715.558370 C1455.196461 715.828365 1456.378263 714.160817 1457.029472 712.691682 C1461.293288 703.072467 1461.284290 691.391714 1455.966501 682.312587 C1450.648712 673.233460 1439.776195 667.389707 1429.385843 669.048024 C1418.995491 670.706341 1410.191384 680.450419 1410.599644 690.964350 C1410.851311 697.445538 1404.223404 702.903428 1397.750022 702.497885 C1391.276640 702.092342 1385.747128 696.864990 1383.727797 690.701270 C1381.708466 684.537551 1382.744550 677.701240 1385.237451 671.713371 C1394.545107 649.356675 1423.074985 639.413534 1446.465508 645.685509 C1455.985148 648.238120 1464.966156 653.037324 1471.992434 659.948964 C1491.349485 678.990190 1492.627483 709.259186 1492.665882 736.411758 C1492.683495 748.869443 1492.701110 761.327127 1492.718726 773.784810 C1492.734213 784.740331 1491.634050 797.751124 1482.151139 803.237295 M1428.869695 737.745337 C1421.452822 738.788897 1413.654518 740.759092 1408.554108 746.244057 C1403.453698 751.729021 1402.646934 761.703488 1408.692436 766.125130 C1411.593040 768.246614 1415.367146 768.696979 1418.958072 768.836334 C1433.519655 769.401433 1449.790250 764.790548 1456.983024 752.116833 C1459.228918 748.159553 1460.234435 742.700574 1457.115544 739.387475 C1454.762501 736.887913 1450.959329 736.555041 1447.526598 736.523997 C1441.288819 736.467586 1435.046885 736.876203 1428.869695 737.745339 z"/><path class="selected"  fill="#000000" opacity="1.000000" stroke="none" 
 	d="
M1756.941929 789.082112 C1759.827623 791.291360 1762.925703 793.697676 1763.937053 797.188404 C1765.390559 802.205259 1761.746349 807.536260 1757.091809 809.906230 C1750.294743 813.367120 1741.847724 812.024060 1735.164655 808.347862 C1728.481587 804.671664 1723.194713 798.955980 1718.033209 793.340224 C1700.768276 774.555835 1683.503343 755.771451 1666.238410 736.987066 C1661.164818 750.617337 1661.184278 766.077353 1666.292169 779.694808 C1669.333364 787.802523 1660.637826 796.828018 1651.999273 796.228597 C1643.360721 795.629177 1636.480694 788.092169 1633.840768 779.845068 C1631.200841 771.597966 1631.901910 762.706025 1632.548287 754.070859 C1637.040969 694.051640 1637.545203 633.734181 1634.056561 573.648242 C1633.498069 564.029180 1640.451487 554.136482 1649.967045 552.622408 C1659.482603 551.108333 1669.677470 559.556320 1668.849885 569.155975 C1665.264757 610.741997 1663.930569 652.521976 1664.855110 694.252008 C1682.618155 678.034809 1700.381199 661.817610 1718.144243 645.600411 C1723.011414 641.156810 1728.072882 636.596217 1734.320045 634.496720 C1740.567209 632.397223 1748.369395 633.428382 1752.346539 638.683596 C1756.473719 644.137058 1755.079082 652.251673 1751.054157 657.781035 C1747.029232 663.310396 1740.950872 666.902380 1735.162405 670.544841 C1718.663543 680.926945 1703.113674 692.993393 1690.016135 707.431363 C1688.460383 709.146337 1686.852232 711.115705 1686.857715 713.431189 C1686.862331 715.380330 1688.019156 717.116219 1689.145453 718.707014 C1708.038884 745.392291 1730.980184 769.206158 1756.941928 789.082112 z"/><path class="selected"  fill="#000000" opacity="1.000000" stroke="none" 
 	d="
M1290.900744 756.177790 C1293.537492 733.659241 1292.122072 710.672296 1286.742562 688.647347 C1284.202508 678.247785 1277.996216 665.966000 1267.300013 666.406452 C1257.156223 666.824155 1251.767008 678.435325 1249.465926 688.323498 C1243.957613 711.993751 1242.992683 736.712750 1246.639064 760.740363 C1248.239592 771.286951 1249.526561 784.629290 1240.369089 790.100389 C1232.671606 794.699221 1222.135533 789.590570 1217.734988 781.778036 C1213.334442 773.965502 1213.389135 764.510152 1213.560827 755.545164 C1213.781591 744.017760 1214.002357 732.490356 1214.223122 720.962952 C1215.184770 670.749907 1216.146418 620.536863 1217.108066 570.323818 C1217.181822 566.472593 1217.293682 562.464223 1219.067376 559.044956 C1223.202520 551.073369 1235.304704 550.056610 1242.446198 555.501302 C1249.587693 560.945994 1252.277170 570.623275 1252.028471 579.600121 C1251.779771 588.576967 1249.085579 597.280702 1247.493415 606.118723 C1245.014901 619.876810 1245.222637 634.113622 1248.101511 647.793537 C1254.770435 640.498521 1266.531244 642.104259 1276.013066 644.894745 C1287.978768 648.416234 1300.155572 653.227113 1308.427836 662.562452 C1319.999141 675.620791 1321.518854 694.515212 1322.068270 711.954062 C1322.823484 735.925112 1322.822685 759.919973 1322.065876 783.890972 C1321.964415 787.104663 1321.823121 790.427745 1320.410861 793.316278 C1317.058815 800.172305 1307.179416 801.890288 1300.561545 798.089617 C1293.943675 794.288945 1290.420860 786.554540 1289.545045 778.973361 C1288.669231 771.392183 1290.013206 763.757605 1290.900744 756.177790 z"/><path class="selected"  fill="#000000" opacity="1.000000" stroke="none" 
 	d="
M966.315749 638.008676 C976.468265 634.522179 987.705293 639.856200 995.511324 647.224723 C1000.203644 651.654051 1004.262154 657.046258 1005.765106 663.321443 C1007.268058 669.596629 1005.794175 676.843523 1000.939333 681.094091 C996.084491 685.344658 987.715360 685.460143 983.580289 680.506558 C978.664250 674.617421 979.545203 663.195129 972.017580 661.717209 C966.370440 660.608489 962.236509 666.825621 960.111983 672.174063 C947.982146 702.710633 945.058787 736.836193 951.818187 768.990906 C953.525264 777.111532 947.050152 785.801899 938.847516 787.057059 C930.644879 788.312218 922.147710 782.476765 919.782964 774.522731 C918.417674 769.930459 918.869680 765.024607 919.206473 760.245533 C921.299593 730.544356 918.447942 700.750431 917.327139 670.996694 C917.020591 662.858825 916.991588 654.157584 921.406430 647.314482 C925.821271 640.471380 936.419749 637.074265 942.264270 642.745284 C945.399472 645.787415 950.545842 645.480005 954.589814 643.827632 C958.633785 642.175259 962.184062 639.427551 966.315751 638.008680 z"/><path class="selected"  fill="#000000" opacity="1.000000" stroke="none" 
 	d="
M609.232187 655.174837 C610.269128 661.088187 604.228556 665.915595 598.436979 667.496923 C592.645401 669.078251 586.236204 669.023440 581.179423 672.259476 C578.524499 698.580250 578.989230 725.214326 582.560784 751.426456 C583.377535 757.420704 584.352508 763.554394 583.080386 769.468767 C581.808265 775.383139 577.705633 781.130909 571.787854 782.387088 C565.499043 783.722030 559.066342 779.539677 555.798807 774.003032 C552.531273 768.466387 551.751316 761.852738 551.178348 755.449386 C548.895165 729.933115 548.776212 704.223544 550.823184 678.687242 C551.219822 673.739127 545.309475 670.797030 540.368995 670.314517 C535.428516 669.832005 529.740030 670.086487 526.393073 666.420557 C522.365661 662.009324 524.759972 654.370638 529.632409 650.915439 C534.504846 647.460241 540.828386 647.029430 546.793446 646.717829 C553.917811 646.345668 555.619562 636.657491 555.196746 629.535953 C554.814532 623.098290 554.432318 616.660628 554.050105 610.222965 C553.652061 603.518683 553.502213 596.046505 557.940204 591.005665 C565.503626 582.414837 581.178830 588.331426 585.556858 598.906896 C589.934886 609.482366 586.533239 621.554685 582.460502 632.251437 C580.146436 638.329171 587.588821 643.491308 593.891751 645.093436 C600.194681 646.695564 608.108922 648.769213 609.232186 655.174837 z"/><path class="selected"  fill="#000000" opacity="1.000000" stroke="none" 
 	d="
M722.281068 656.367146 C723.223917 662.277640 717.155894 667.007321 711.371698 668.545491 C705.587501 670.083661 699.193581 670.018893 694.162903 673.261603 C691.541605 699.725759 692.014398 726.495081 695.568574 752.850165 C696.361930 758.733081 697.304791 764.750092 696.070079 770.556433 C694.835367 776.362774 690.870461 782.015548 685.086069 783.349313 C678.784831 784.802254 672.253530 780.641484 668.946923 775.084238 C665.640316 769.526992 664.860142 762.869346 664.288338 756.428098 C662.043273 731.137966 661.886378 705.662778 663.819772 680.346915 C664.248431 674.734064 657.355933 671.712236 651.766044 671.048167 C646.176155 670.384098 639.321768 669.560237 637.217035 664.339323 C634.273135 657.036810 643.777379 651.112934 651.467541 649.423361 C659.157703 647.733788 669.082342 644.223742 668.628483 636.363255 C668.095645 627.134916 667.562808 617.906578 667.029970 608.678239 C666.745518 603.751743 666.533104 598.502054 669.002437 594.229622 C672.971774 587.361885 683.112286 585.816998 689.941743 589.851842 C696.771200 593.886687 700.341572 602.076416 700.631457 610.003422 C700.921342 617.930427 698.397853 625.684596 695.423820 633.038274 C692.957231 639.137238 700.473971 644.453786 706.846301 646.089281 C713.218630 647.724776 721.244702 649.870427 722.281066 656.367148 z"/><path class="selected"  fill="#000000" opacity="1.000000" stroke="none" 
 	d="
M302.882333 622.252327 C312.716860 660.077107 317.640053 699.175862 317.489400 738.257945 C317.441090 750.791038 316.544565 764.259493 308.763478 774.084738 C297.948661 787.740693 278.171734 789.431765 260.752293 789.523660 C211.506335 789.783450 162.240517 786.185596 113.554803 778.773912 C97.698878 776.360080 78.308113 769.981751 76.432194 754.053227 C57.719431 595.162186 39.006667 436.271145 20.293904 277.380105 C9.782849 188.130196 -0.744517 98.595630 0.041439 8.732342 C0.059469 6.670841 0.113907 4.497063 1.181164 2.733239 C5.127687 -3.789067 15.122056 2.558315 18.728814 9.274477 C26.281395 23.338178 29.682272 39.196557 32.948126 54.822285 C58.482975 176.995723 81.073902 299.784444 100.694691 423.045964 C107.844649 467.963359 115.114459 514.367732 139.284921 552.896721 C142.416844 557.889180 145.928782 562.829059 150.812947 566.127320 C156.474620 569.950631 163.466404 571.220753 170.275826 571.772111 C191.197018 573.466094 212.150706 569.230164 233.140143 569.326339 C254.129580 569.422513 276.838807 574.961823 289.769149 591.495787 C296.685227 600.339346 300.057275 611.386800 302.882336 622.252325 M242.760556 625.494860 C228.189768 612.861365 208.272127 605.692005 189.272269 608.996313 C170.272411 612.300622 153.082755 627.194104 149.650209 646.171214 C147.803926 656.378523 149.846792 667.010150 153.910516 676.553947 C161.127623 693.503571 174.863017 707.579604 191.630789 715.209686 C210.644121 723.861599 234.938451 723.405960 250.639025 709.627194 C262.635737 699.098925 267.962835 682.064307 265.864826 666.241416 C263.766817 650.418526 254.820150 635.951043 242.760557 625.494862 z"/></svg>