<svg  id="butterchalk-mobilechalk" xmlns="http://www.w3.org/2000/svg" viewBox="0.000001 0.000002 1165.300293 1131.942017"><path class="selected"  fill="#000000" opacity="1.000000" stroke="none" 
 	d="
M649.983884 620.022830 C657.526971 622.716086 665.936101 622.689561 673.162966 626.142707 C680.389830 629.595852 685.977998 639.003931 681.378552 645.561131 C678.834955 649.187411 674.183925 650.538399 669.895487 651.647044 C662.944412 653.444033 655.993338 655.241021 649.042263 657.038010 C645.935511 690.484829 646.615744 724.281957 651.065800 757.576680 C651.935849 764.086269 652.948265 770.715737 651.788215 777.179947 C650.628164 783.644158 646.837856 790.047890 640.723761 792.445718 C632.564830 795.645494 623.024045 790.528172 618.369066 783.102681 C613.714088 775.677190 612.788312 766.579467 612.146716 757.839038 C609.902676 727.268616 609.678875 696.550056 611.477256 665.950185 C611.827699 659.987303 604.661594 656.565800 598.704393 656.129301 C592.747192 655.692803 585.964866 656.261986 581.674654 652.105924 C576.540022 647.131845 578.532310 637.875419 583.906036 633.160658 C589.279763 628.445897 596.758748 627.126097 603.849590 626.217322 C606.593855 625.865613 609.513119 625.476147 611.630684 623.695528 C613.749128 621.914169 614.637607 619.092433 615.282413 616.400728 C617.418380 607.484253 617.992740 598.195948 616.971578 589.084246 C615.719771 577.914544 612.680684 564.825149 620.570204 556.819854 C627.906366 549.376042 641.466011 551.749989 648.367282 559.598685 C655.268553 567.447381 656.680828 578.793984 655.578248 589.186958 C654.475669 599.579931 651.207679 609.643431 649.983882 620.022829 z"/><path class="selected"  fill="#000000" opacity="1.000000" stroke="none" 
 	d="
M995.856175 681.697327 C993.621423 703.468432 973.975250 719.588641 953.599204 727.575622 C936.476050 734.287537 916.160253 736.757058 900.328487 727.397175 C899.824163 739.997997 900.198534 754.619911 910.120106 762.404349 C919.276569 769.588486 932.504616 767.533586 943.560229 763.896820 C952.305811 761.019944 960.799205 757.376883 968.911269 753.023030 C977.898093 748.199681 990.058538 742.862718 997.084638 750.256067 C1003.408597 756.910577 999.105705 768.128801 992.776561 774.778379 C981.282757 786.854097 964.756651 792.826613 948.403471 796.067601 C926.460949 800.416323 901.736479 799.914293 884.182739 786.048803 C863.359184 769.600535 859.008801 739.610256 861.663389 713.207244 C864.319672 686.787355 872.408843 660.925674 885.280660 637.701064 C890.834064 627.681063 897.903076 617.611340 908.526866 613.324643 C922.533908 607.672806 938.407524 613.637888 951.685593 620.837429 C963.386869 627.182014 974.716001 634.690629 983.227765 644.924079 C991.739529 655.157529 997.215340 668.456242 995.856175 681.697326 M956.213834 677.467045 C956.726232 667.879726 953.216934 657.843924 945.831913 651.708721 C938.446892 645.573519 927.066970 644.139499 919.037070 649.402573 C912.476272 653.702746 909.051161 661.402173 906.720251 668.892325 C905.136496 673.981571 903.885167 679.283673 904.293048 684.598024 C904.700929 689.912375 906.976431 695.289356 911.290433 698.419545 C915.343335 701.360283 920.614720 701.989154 925.622109 701.991436 C935.303437 701.995847 945.875763 699.452184 951.614938 691.655391 C954.604358 687.594203 955.944703 682.502664 956.213833 677.467045 z"/><path class="selected"  fill="#000000" opacity="1.000000" stroke="none" 
 	d="
M522.740575 628.278985 C530.706706 639.349571 528.391533 654.449541 526.367436 667.937318 C520.761298 705.294388 520.125935 743.394309 524.483353 780.917534 C525.425911 789.034230 519.926286 797.431304 512.109215 799.810920 C504.292144 802.190536 495.046561 798.282091 491.306688 791.016934 C488.962128 786.462344 482.905812 785.067022 477.880960 786.063067 C472.856107 787.059113 468.388021 789.833437 463.599060 791.651981 C442.227448 799.767564 417.212854 786.910064 405.105317 767.518931 C392.997780 748.127798 391.208555 724.073386 392.252000 701.236580 C393.295444 678.399774 396.823071 655.476742 394.035019 632.786761 C392.931429 623.805427 398.615032 614.432992 407.089309 611.259838 C415.563586 608.086684 426.005212 611.421102 431.071985 618.918440 C436.670262 627.202245 435.466431 638.127321 434.335312 648.061238 C431.313904 674.596387 430.403104 701.371573 431.614341 728.050700 C431.950531 735.455719 432.483894 743.006891 435.296696 749.865132 C438.109499 756.723373 443.608359 762.880350 450.811748 764.629215 C459.743305 766.797652 469.205093 761.617614 474.615063 754.187469 C480.025034 746.757324 482.163715 737.487656 483.749043 728.434393 C489.405400 696.132876 489.583405 662.879074 484.273174 630.518856 C483.612795 626.494540 486.987656 622.899949 490.568531 620.948398 C501.122028 615.196823 515.720526 618.523176 522.740575 628.278985 z"/><path class="selected"  fill="#000000" opacity="1.000000" stroke="none" 
 	d="
M818.380196 646.554190 C815.842959 650.167196 811.210012 651.517259 806.936790 652.626744 C799.953119 654.439963 792.969448 656.253181 785.985777 658.066399 C782.929532 692.948512 783.737547 728.167812 788.390292 762.873062 C789.635826 772.163598 790.651258 783.027892 783.892979 789.523358 C775.763847 797.336368 761.154815 792.707996 754.883822 783.337801 C748.612830 773.967606 748.314299 761.965701 748.228666 750.691014 C748.013618 722.377672 747.798573 694.064330 747.583528 665.750989 C747.542446 660.342152 741.112451 657.402587 735.712941 657.082438 C730.313431 656.762290 724.346172 657.543220 719.998736 654.324991 C713.468224 649.490719 715.493998 638.399414 721.810074 633.288158 C728.126151 628.176901 736.786561 627.378887 744.890435 626.791526 C748.886675 626.501883 751.045999 622.030049 752.068910 618.156101 C754.430525 609.212241 755.113133 599.828044 754.070683 590.636571 C752.786718 579.315629 749.505040 566.049925 757.471873 557.904873 C764.785391 550.427755 778.364882 552.746127 785.300846 560.574742 C792.236810 568.403356 793.686447 579.758571 792.595295 590.160695 C791.504144 600.562820 788.226223 610.630850 786.960347 621.013160 C794.501947 623.721618 802.916513 623.689589 810.150285 627.136902 C817.384057 630.584214 822.985367 639.996460 818.380196 646.554190 z"/><path class="selected"  fill="#000000" opacity="1.000000" stroke="none" 
 	d="
M679.407187 992.303105 C686.214112 1006.189620 687.199995 1022.128603 687.617536 1037.588072 C688.284546 1062.284137 687.811475 1087.010964 686.200333 1111.663444 C685.691904 1119.443036 676.087078 1124.289257 668.675210 1121.871660 C661.263343 1119.454064 656.496878 1111.928087 654.942395 1104.288444 C653.387912 1096.648802 654.433245 1088.757206 655.118092 1080.991156 C657.189688 1057.499626 655.886530 1033.713102 651.261042 1010.588476 C649.990188 1004.234983 648.386297 997.743358 644.573344 992.504720 C640.760391 987.266081 634.223492 983.524103 627.869254 984.791230 C618.863522 986.587102 614.508909 996.750167 612.323791 1005.669450 C606.809680 1028.177120 605.699169 1051.754820 609.073338 1074.681128 C610.216657 1082.449585 611.868042 1090.376941 610.309558 1098.072864 C608.751073 1105.768787 602.916870 1113.283018 595.084709 1113.842794 C587.794654 1114.363829 581.222126 1108.644385 578.362574 1101.918365 C575.503022 1095.192345 575.540392 1087.639730 575.623620 1080.331553 C576.372765 1014.549424 577.121911 948.767299 577.871057 882.985175 C577.917145 878.938166 578.045893 874.619031 580.353911 871.294357 C583.707152 866.464049 590.638576 865.441660 596.323082 866.945821 C608.630897 870.202555 616.975501 884.187836 613.996445 896.565794 C608.791017 918.194322 607.063832 940.656048 608.901384 962.826142 C635.271190 953.998216 667.167461 967.333362 679.407187 992.303105 z"/><path class="selected"  fill="#000000" opacity="1.000000" stroke="none" 
 	d="
M1104.503309 1085.855573 C1112.303606 1094.063804 1120.617260 1102.421482 1131.288952 1106.207601 C1139.203040 1109.015374 1140.357540 1121.182470 1134.392178 1127.092702 C1128.426817 1133.002934 1118.484977 1133.100465 1110.856194 1129.590759 C1103.227410 1126.081052 1097.373848 1119.691502 1091.738762 1113.465573 C1076.249428 1096.352171 1060.760094 1079.238768 1045.270760 1062.125365 C1042.501040 1059.065237 1039.101749 1055.740785 1034.988934 1056.087903 C1033.334934 1070.736659 1034.412529 1085.689299 1038.149918 1099.949513 C1040.404921 1108.553604 1030.919709 1116.998214 1022.090273 1115.922815 C1013.260837 1114.847417 1006.509529 1106.931020 1003.970640 1098.406382 C1001.431752 1089.881743 1002.239500 1080.770526 1002.972333 1071.906081 C1008.078543 1010.140630 1008.410139 947.981044 1003.963187 886.164631 C1003.253444 876.298590 1010.444679 866.114326 1020.219057 864.596421 C1029.993435 863.078515 1040.404820 871.706643 1039.704397 881.573350 C1036.661077 924.443902 1035.363354 967.438340 1035.815521 1010.414398 C1055.291460 992.680323 1074.767399 974.946247 1094.243338 957.212172 C1101.542928 950.565433 1111.559319 943.463777 1120.384899 947.887834 C1128.786213 952.099211 1129.446286 964.642213 1124.362939 972.546475 C1119.279591 980.450737 1110.514821 985.015687 1102.493730 989.912612 C1086.276148 999.813544 1071.698240 1012.393258 1059.530280 1026.987059 C1056.534739 1030.579805 1059.619906 1035.890417 1062.660034 1039.445514 C1076.198917 1055.277746 1090.153070 1070.754859 1104.503309 1085.855573 z"/><path class="selected"  fill="#000000" opacity="1.000000" stroke="none" 
 	d="
M501.434795 1057.678356 C504.594721 1051.223416 514.410579 1050.189093 519.948958 1054.769239 C525.487337 1059.349385 526.857302 1067.637206 524.821040 1074.529594 C522.784779 1081.421983 517.939585 1087.128175 512.710020 1092.057984 C500.473755 1103.592868 485.084096 1112.183695 468.431356 1114.521619 C451.778616 1116.859544 433.896635 1112.475068 421.442957 1101.175265 C401.412521 1083.000718 399.329085 1051.952060 405.035472 1025.514025 C409.374408 1005.411474 417.377410 986.105681 428.533566 968.829133 C432.937846 962.008615 438.169108 955.222452 445.603227 951.958863 C458.022209 946.506913 472.280827 952.401440 484.274851 958.733757 C491.869348 962.743318 499.579235 967.152439 504.757875 974.003325 C514.166475 986.450077 513.065200 1003.753192 510.212476 1019.092859 C508.678900 1027.339206 506.390798 1036.145461 499.894580 1041.451425 C493.398362 1046.757388 481.496181 1045.798671 478.750485 1037.873064 C477.382126 1033.923216 478.604059 1029.610593 479.565526 1025.542512 C482.257549 1014.152249 482.839475 1002.266865 481.273030 990.668103 C480.810469 987.243060 480.096284 983.691739 477.950639 980.982296 C473.746459 975.673412 465.241339 975.586701 459.477398 979.141465 C453.713457 982.696228 450.162874 988.898934 447.334974 995.052172 C437.533477 1016.379318 433.578243 1040.358576 436.011317 1063.703733 C436.999965 1073.189738 439.762598 1083.660523 447.966218 1088.524916 C456.487371 1093.577595 467.580253 1090.504176 476.061415 1085.384655 C486.930447 1078.823733 495.852746 1069.081086 501.434795 1057.678356 z"/><path class="selected"  fill="#000000" opacity="1.000000" stroke="none" 
 	d="
M826.968144 1015.609944 C825.784253 1008.442518 824.247878 1001.041084 819.889378 995.229280 C813.859262 987.188474 802.534506 983.573562 792.960950 986.633606 C783.387395 989.693650 776.258854 999.206884 776.010441 1009.254527 C775.836470 1016.291211 768.049877 1021.607751 761.112384 1020.417635 C754.174891 1019.227519 748.876091 1012.862823 747.489517 1005.961910 C746.102944 999.060998 748.068834 991.842426 751.387533 985.635057 C761.214151 967.255129 783.233801 956.701198 803.937105 959.100654 C824.640408 961.500111 843.141800 975.988040 851.859046 994.919331 C857.336230 1006.814159 859.188124 1020.032872 860.285872 1033.082064 C862.245618 1056.378039 862.001022 1079.858956 859.556414 1103.109052 C858.821959 1110.094286 857.580783 1117.677841 852.382607 1122.401387 C847.811633 1126.555000 840.570206 1127.442668 835.131327 1124.516081 C829.692449 1121.589495 826.443622 1115.057165 827.391633 1108.954085 C827.842812 1106.049503 823.134538 1106.078272 820.466154 1107.311107 C800.973717 1116.316947 777.528961 1116.303719 758.046699 1107.275895 C748.061541 1102.648903 738.594083 1094.995544 735.804851 1084.349765 C731.291984 1067.125315 745.937206 1050.500520 761.795985 1042.404423 C779.022216 1033.610225 799.058134 1030.428651 818.161231 1033.453987 C822.012914 1034.063973 825.654106 1030.878551 826.906005 1027.185274 C828.157903 1023.491997 827.603671 1019.457496 826.968145 1015.609944 M800.000468 1056.434729 C794.293095 1056.866288 788.497771 1057.316506 783.132997 1059.311388 C777.768224 1061.306270 772.795652 1065.088794 770.708878 1070.418496 C768.622104 1075.748198 770.165027 1082.649451 775.070391 1085.598646 C776.774435 1086.623150 778.738179 1087.127320 780.693193 1087.489664 C794.396305 1090.029407 809.186942 1085.821006 819.500439 1076.447782 C822.381463 1073.829420 825.003364 1070.687972 825.931064 1066.907034 C826.858765 1063.126096 825.680436 1058.622814 822.358189 1056.593332 C819.764680 1055.009020 816.505707 1055.186697 813.475226 1055.415844 C808.983640 1055.755473 804.492054 1056.095101 800.000468 1056.434729 z"/><path class="selected"  fill="#000000" opacity="1.000000" stroke="none" 
 	d="
M955.864000 889.844396 C944.895808 957.763696 944.407681 1027.365243 954.422184 1095.431698 C955.120864 1100.180482 955.815371 1105.294481 953.617493 1109.561616 C949.389301 1117.770570 936.478943 1117.476608 929.797540 1111.102960 C923.116137 1104.729312 921.214944 1094.914986 920.253775 1085.731266 C918.573981 1069.681184 918.701830 1053.503304 918.831528 1037.366084 C919.250315 985.258904 919.669105 933.151725 920.087894 881.044545 C920.169449 870.897227 931.888765 863.188782 941.659626 865.928308 C951.430488 868.667835 957.481771 879.826535 955.864000 889.844396 z"/><path class="selected"  fill="#000000" opacity="1.000000" stroke="none" 
 	d="
M310.350377 643.192478 C316.354672 675.049479 321.695274 707.318007 320.376223 739.709058 C319.841902 752.830021 317.807516 766.840582 308.976319 776.559384 C297.367755 789.334702 278.047033 790.680928 260.785300 790.672535 C212.436298 790.649026 164.089511 786.949388 116.299875 779.616087 C101.145411 777.290641 82.653377 771.279080 80.672424 756.075747 C48.024574 505.511497 15.353624 254.709409 -0.000000 2.494041 C5.454612 -2.093962 14.295983 0.117653 19.171886 5.316512 C24.047789 10.515371 25.955458 17.751930 27.656967 24.673450 C64.877331 176.081497 85.292044 331.050458 115.217104 484.067589 C119.119415 504.021439 123.308154 524.291908 133.079460 542.121819 C141.879375 558.179212 157.499293 572.785967 175.789031 571.911970 C194.205986 571.031896 212.635648 570.417755 231.070335 570.069804 C246.347803 569.781442 262.413093 569.864054 275.779796 577.267797 C298.243543 589.710339 305.594140 617.957283 310.350379 643.192474 M267.017362 661.421280 C265.854712 657.007421 264.303250 652.693582 262.341174 648.572397 C251.519750 625.842845 227.419935 610.062437 202.259550 609.231325 C191.367798 608.871541 180.160597 611.239339 171.162408 617.386882 C156.853022 627.163025 149.953318 645.814926 152.191829 662.999819 C154.430340 680.184712 164.887592 695.652334 178.626083 706.215731 C193.398424 717.574045 212.771664 723.755141 231.038178 720.071698 C249.304693 716.388256 265.628257 701.723521 268.585113 683.325414 C269.755168 676.045133 268.895597 668.551761 267.017364 661.421281 z"/><path class="selected"  fill="#000000" opacity="1.000000" stroke="none" 
 	d="
M1107.654476 656.775429 C1098.466905 683.491866 1093.865663 711.778892 1094.112088 740.029888 C1094.196779 749.739130 1094.887157 759.623223 1098.389969 768.678986 C1102.289805 778.761168 1096.517712 791.492189 1086.364375 795.202830 C1076.211038 798.913471 1063.590167 792.904347 1060.070019 782.683405 C1058.412849 777.871722 1058.609675 772.648075 1058.784182 767.562011 C1060.016831 731.635975 1059.176075 695.638906 1056.267490 659.809594 C1055.327240 648.227184 1054.349475 635.791954 1060.191479 625.746692 C1066.033482 615.701430 1081.731404 610.777636 1089.367713 619.536808 C1092.288194 622.886727 1097.748790 622.457661 1101.685416 620.395113 C1105.622042 618.332565 1108.798068 615.014131 1112.762433 613.005415 C1123.268834 607.681894 1136.062452 612.850425 1145.670496 619.662901 C1152.965187 624.835121 1159.766615 631.239753 1163.206628 639.493884 C1166.646642 647.748015 1166.048096 658.138953 1159.910393 664.642258 C1153.772691 671.145563 1141.711763 671.678911 1136.360357 664.514637 C1131.133532 657.517150 1132.235233 645.092823 1123.889943 642.515874 C1116.237295 640.152806 1110.259064 649.201576 1107.654476 656.775428 z"/></svg>